<svg xmlns="http://www.w3.org/2000/svg" height="19.679" viewBox="0 0 250 19.678591" width="250"><g transform="matrix(1.25 0 0 -1.25 -258.5 505.29)"><path d="m48.805 1.1191c-3.782 0-6.424 2.1861-6.424 5.3145 0 3.1116 2.845 4.3194 5.642 5.1034 2.372 0.665 3.309 0.986 3.309 2.422 0 1.137-1.008 1.842-2.633 1.842-2.599 0-4.031-1.723-4.447-2.317l-2.568 2.2c1.303 2.083 3.557 3.14 6.699 3.14 3.92 0 6.66-2.26 6.66-5.498 0-3.26-2.736-4.2489-5.299-4.9198-1.998-0.533-3.654-1.0744-3.654-2.3144 0-0.7832 0.612-1.9492 2.293-1.9492 1.674 0 2.928 0.5795 3.834 1.7734l2.388-2.0781c-1.515-2.3633-4.282-2.7188-5.8-2.7188zm-21.567 0.002c-4.744 0-8.166 3.685-8.166 8.791v0.1929c0 5.299 3.059 8.719 8.045 8.719 3.788 0 6.501-1.889 7.164-5.726l-1.914-0.2c-0.433 2.794-2.383 4.215-5.201 4.215-3.709 0-5.926-2.649-5.926-7.033v-0.1913c0-4.3353 2.385-7.1055 5.949-7.1055 2.626 0 4.408 1.1084 5.106 3.9746h1.76v-5.2051h-1.879v1.8809c-0.891-1.5896-2.77-2.3125-4.938-2.3125zm48.735 0.4277v17.006h3.746v-12.106l0.049 0.0002 7.421 12.106h4.901v-17.006l-3.748-0.0002v11.818h-0.047l-7.231-11.818-5.091-0.0002zm18.732 0v3.3145h4.693v13.692h3.752v-13.692l5.01 0.0003v-3.3145h-13.455zm36.825 0v17.006h6.97c0.75 0 1.51-0.08 2.27-0.241 0.76-0.16 1.45-0.422 2.05-0.791 0.61-0.368 1.11-0.853 1.49-1.453 0.39-0.6 0.58-1.349 0.58-2.246 0-0.544-0.09-1.056-0.27-1.537-0.17-0.48-0.42-0.901-0.75-1.262-0.33-0.36-0.72-0.656-1.18-0.888-0.45-0.232-0.96-0.3889-1.52-0.469v-0.0469c0.88-0.2721 1.59-0.7245 2.12-1.3574 0.54-0.6325 0.81-1.4301 0.81-2.3907 0-0.9282-0.19-1.6737-0.56-2.2343-0.36-0.5602-0.84-0.9965-1.44-1.3086-0.59-0.3126-1.26-0.5204-2-0.625-0.75-0.1037-1.49-0.1563-2.22-0.1563h-6.35zm33.88 0v17.006h3.75v-6.797h1.85l3.55 6.797h4.49l-4.32-7.182c1.2-0.224 2.11-0.757 2.74-1.5976 0.62-0.8404 0.93-1.8597 0.93-3.0606 0-0.9932-0.17-1.8219-0.51-2.4863-0.35-0.6643-0.81-1.1933-1.39-1.5859-0.59-0.3918-1.27-0.6735-2.05-0.8418-0.77-0.1683-1.59-0.252-2.46-0.252h-6.58zm-164.53 0.0039v1.6368h1.9257l-0.0039 9.1305c0 4.191 2.2396 6.504 6.1895 6.504 4.4318 0 6.5278-2.577 6.5278-6.767l0.003-8.8675h1.928v-1.6368h-6.189v1.6368h2.166l-0.004 8.5785c0 4.215-1.637 5.322-4.383 5.322-2.8662 0-4.1445-1.398-4.1445-5.01l0.0058-8.8905h2.168v-1.6368h-6.1894zm62.519 0l-7.351 17.006h4.133l1.416-3.604h6.605l1.465 3.604h4.228l-7.398-17.006-3.098-0.0003zm50.48 0l-7.34 17.006h4.13l1.41-3.604h6.61l1.46 3.604h4.23l-7.4-17.006-3.1-0.0003zm39.25 0l-7.35 17.006h4.13l1.42-3.604h6.6l1.47 3.604h4.22l-7.39-17.006-3.1-0.0003zm29.02 0v17.006h6.97c0.75 0 1.5-0.08 2.26-0.241 0.77-0.16 1.45-0.425 2.06-0.793s1.1-0.853 1.49-1.453c0.38-0.601 0.57-1.349 0.57-2.246 0-0.545-0.08-1.056-0.26-1.537-0.18-0.48-0.43-0.901-0.76-1.262-0.32-0.36-0.72-0.656-1.17-0.888-0.46-0.232-0.97-0.3875-1.53-0.4671v-0.0489c0.88-0.2716 1.59-0.7244 2.13-1.3574 0.53-0.6325 0.8-1.4296 0.8-2.3906 0-0.9278-0.18-1.6723-0.55-2.2324-0.37-0.5606-0.85-0.9984-1.44-1.3106-0.59-0.3121-1.26-0.5188-2.01-0.623-0.74-0.1042-1.48-0.1563-2.22-0.1563h-6.34zm21.59 0l-7.35 17.006h4.14l1.41-3.604h6.61l1.46 3.604h4.23l-7.4-17.006-3.1-0.0003zm12.29 0v17.006h3.74v-6.799h1.85l3.56 6.799h4.49l-4.32-7.184c1.2-0.224 2.11-0.757 2.73-1.5977 0.63-0.84 0.94-1.8597 0.94-3.0605 0-0.9929-0.17-1.822-0.52-2.4863-0.34-0.6644-0.8-1.1933-1.39-1.586-0.58-0.3922-1.26-0.6719-2.04-0.8398-0.78-0.1688-1.6-0.252-2.46-0.252h-6.58zm22.35 0l-7.35 17.006h4.14l1.41-3.604h6.61l1.46 3.604h4.23l-7.4-17.006-3.1-0.0003zm-103.1 3.1661h2.55c0.29 0 0.58 0.0299 0.89 0.0859 0.3 0.0564 0.57 0.1475 0.81 0.2754 0.24 0.1283 0.44 0.3094 0.59 0.541 0.15 0.2325 0.23 0.5252 0.23 0.8769 0 0.3363-0.07 0.6235-0.2 0.8633-0.14 0.2403-0.32 0.4324-0.54 0.5762-0.23 0.1443-0.48 0.2493-0.76 0.3125-0.28 0.0641-0.57 0.0977-0.85 0.0977h-2.72v-3.6289zm33.88 0h2.45c0.33 0 0.68 0.0243 1.03 0.0722 0.35 0.0482 0.67 0.1417 0.94 0.2774 0.27 0.1364 0.49 0.3325 0.67 0.5878 0.18 0.2566 0.26 0.6014 0.26 1.0333 0 0.465-0.1 0.8258-0.3 1.082s-0.45 0.4439-0.75 0.5644c-0.31 0.1206-0.65 0.1908-1.02 0.2149-0.38 0.0236-0.74 0.0371-1.07 0.0371h-2.21v-3.8691zm16.74 0.0039h2.54c0.29 0 0.59 0.0279 0.89 0.0839 0.31 0.0565 0.58 0.1495 0.82 0.2774 0.24 0.1278 0.43 0.3074 0.59 0.539 0.15 0.233 0.22 0.5248 0.22 0.877 0 0.3363-0.06 0.6254-0.2 0.8652-0.13 0.2403-0.31 0.4324-0.54 0.5762-0.22 0.1443-0.48 0.2488-0.76 0.3125-0.28 0.0643-0.56 0.0957-0.85 0.0957h-2.71v-3.6269zm33.87 0h2.45c0.34 0 0.68 0.0245 1.04 0.0722 0.35 0.0478 0.66 0.1398 0.93 0.2754 0.27 0.1365 0.5 0.3322 0.68 0.5879 0.17 0.2566 0.26 0.6014 0.26 1.0332 0 0.465-0.1 0.8258-0.3 1.082-0.2 0.2566-0.45 0.4439-0.76 0.5645-0.3 0.1201-0.64 0.1903-1.02 0.2148-0.38 0.0238-0.73 0.0371-1.07 0.0371h-2.21v-3.8671zm-154.93 1.7773l2.09 5.285h-4.155l2.065-5.285zm50.49 0l2.09 5.285h-4.16l2.07-5.285zm39.24 0l2.09 5.285h-4.16l2.07-5.285zm50.62 0l2.09 5.283h-4.16l2.07-5.283zm34.63 0l2.09 5.283h-4.15l2.06-5.283zm-104.54 5.018h2.84c0.3 0 0.63 0.024 0.98 0.072s0.68 0.136 0.99 0.264c0.3 0.129 0.55 0.316 0.75 0.564 0.2 0.249 0.3 0.573 0.3 0.973 0 0.368-0.07 0.681-0.23 0.937-0.15 0.257-0.34 0.465-0.58 0.625s-0.51 0.272-0.81 0.336c-0.29 0.064-0.59 0.096-0.88 0.096h-3.36v-3.867zm50.62 0.003h2.83c0.3 0 0.63 0.023 0.98 0.071 0.36 0.048 0.69 0.138 0.99 0.265 0.31 0.13 0.56 0.317 0.76 0.565 0.2 0.249 0.3 0.573 0.3 0.973 0 0.368-0.08 0.679-0.23 0.935-0.15 0.257-0.35 0.465-0.59 0.625s-0.51 0.272-0.8 0.336c-0.3 0.064-0.59 0.098-0.88 0.098h-3.36v-3.868z" transform="matrix(.8 0 0 -.8 206.8 404.24)" fill="#003660"/></g></svg>
